# xmcd
#
# Track frame offsets:
#	150
#	16966
#	37001
#	51985
#	66822
#	81373
#	93298
#	111356
#	127475
#	143091
#	163167
#	180673
#	196593
#	211637
#
# Disc length: 3034 seconds
#
# Revision: 1
# Processed by: cddbd v1.5.1PL0 Copyright (c) Steve Scherf et al.
# Submitted via: audiograbber 1.82.01
#
DISCID=c60bd80e
DTITLE=João Pedro and Cristiano - João Pedro and Cristiano
DYEAR=2004
DGENRE=Sertanejo
TTITLE0=Toma Conta de MIm
TTITLE1=Frente a Frente
TTITLE2=Que Tesouro
TTITLE3=Tudo Outra Vez
TTITLE4=Ira
TTITLE5=Veneno Em MInhas Veias
TTITLE6=Do Lado de Cá do Rio
TTITLE7=Volta de Uma Vez
TTITLE8=Era Só Pra Ficar
TTITLE9=Pe Direito, Pé Esquerdo - O Vagabundo
TTITLE10=Onde Anda Você
TTITLE11=Por Toda a Vida
TTITLE12=Quem Tem Saudade
TTITLE13=Vida Cigana
EXTD=
EXTT0=
EXTT1=
EXTT2=
EXTT3=
EXTT4=
EXTT5=
EXTT6=
EXTT7=
EXTT8=
EXTT9=
EXTT10=
EXTT11=
EXTT12=
EXTT13=
PLAYORDER=
